# xmcd
#
# Track frame offsets:
#	150
#	14064
#	25463
#	41251
#	56242
#	69660
#	83291
#	95543
#	108681
#	121322
#	134820
#	157388
#	171890
#	186476
#	206623
#	221259
#	233597
#	248063
#	261135
#	275759
#	289938
#	303964
#	315370
#
# Disc length: 4395 seconds
#
# Revision: 0
# Processed by: cddbd v1.4PL0 Copyright (c) Steve Scherf et al.
# Submitted via: audiograbber 1.80
#
DISCID=5a112917
DTITLE=Frank Sinatra - Blue skies
DYEAR=1900
DGENRE=
TTITLE0=I'll be seeing you
TTITLE1=The sunshine of your smile
TTITLE2=Shake down the stars
TTITLE3=East of the sun
TTITLE4=Trade winds
TTITLE5=Our love affair
TTITLE6=You and I
TTITLE7=How about you?
TTITLE8=You might have belonged to another
TTITLE9=Take me
TTITLE10=Let's get away from it all
TTITLE11=Daybreak
TTITLE12=People will say
TTITLE13=Without a song
TTITLE14=Fools rush in
TTITLE15=There are things
TTITLE16=I don't stand a ghost of a chance
TTITLE17=Tell me at midnight
TTITLE18=Oh! Look at me now
TTITLE19=Devil may care
TTITLE20=April played the fiddle
TTITLE21=Blueskies
TTITLE22=Stardust
EXTD=
EXTT0=
EXTT1=
EXTT2=
EXTT3=
EXTT4=
EXTT5=
EXTT6=
EXTT7=
EXTT8=
EXTT9=
EXTT10=
EXTT11=
EXTT12=
EXTT13=
EXTT14=
EXTT15=
EXTT16=
EXTT17=
EXTT18=
EXTT19=
EXTT20=
EXTT21=
EXTT22=
PLAYORDER=
